Simulation
nRows=40
nColumns=15
endheader
time  TH_x TH_y TH_z SC_y  SC_z  SC_x  AC_y  AC_z  AC_x  GH_y  GH_z  GH_yy  EL_x  PS_y
0.0  0.000000  0.000000  0.000000  -29.354042737375583  -1.4393437871476449  3.121840698054819  56.31963796384854  2.2484310884489638  -9.12598599431001  165.06844787551742  0.577597793537401  -119.46506073170688  25.615633287828096  0.000000
0.034  0.000000  0.000000  0.000000  -29.62879310801085  -1.4149079038462908  3.3505344955399394  56.71001134058241  2.637754860187595  -9.14509234386527  67.08210987843714  0.687611076114566  -22.076048072322696  25.592287384775638  0.000000
0.068  0.000000  0.000000  0.000000  -29.356895488846817  -1.3999522801904591  3.505619920324214  56.780765341258586  2.7650848460110122  -9.119544782763038  42.80797816162518  1.7229035634020515  1.3268816738217808  25.651955884415546  0.000000
0.10200000000000001  0.000000  0.000000  0.000000  -29.428365431857557  -1.4688961033112726  3.696624297811599  57.1977457366135  2.798316999976272  -9.143240129322793  36.51364843029436  2.9339605339419323  6.595788700794284  25.683523103138377  0.000000
0.136  0.000000  0.000000  0.000000  -29.295182423339607  -1.5270129540683788  3.852521110491006  57.300800323749584  2.729738008179307  -9.098342643317618  34.45981625122518  4.231345932863558  7.461500146502169  25.706696210803926  0.000000
0.17  0.000000  0.000000  0.000000  -29.42354182005192  -1.5661622628925316  4.077445491516858  57.74935916746806  2.6383402511969605  -9.064638589801712  33.694982149437415  5.5596800080776525  7.003171157681527  25.72590216651209  0.000000
0.20400000000000001  0.000000  0.000000  0.000000  -29.325349048982186  -1.5475466978084875  4.273861495863671  57.88552151882716  2.5057862753206153  -8.936245154677978  33.64632298488616  6.934264109279118  5.753313766748418  25.73778568531988  0.000000
0.23800000000000002  0.000000  0.000000  0.000000  -29.464806559220293  -1.491102571338525  4.538053194861185  58.36760010484656  2.39114207122898  -8.815681390574513  33.918533634340854  8.339204857488618  4.162771157809072  25.7376699116093  0.000000
0.272  0.000000  0.000000  0.000000  -29.391287075556733  -1.3686454566536033  4.7700730993743905  58.54756801941722  2.276935167499139  -8.59619349921136  34.47900871679398  9.78816551524436  2.2452583978619463  25.734604104185365  0.000000
0.30600000000000005  0.000000  0.000000  0.000000  -29.539529962680295  -1.2077345940721391  5.071135452297296  59.07613255245908  2.2004394507793883  -8.378636608383866  35.1656638997077  11.270661116717061  0.1850896301910998  25.71700724690798  0.000000
0.34  0.000000  0.000000  0.000000  -29.485002301144803  -0.9925006294128844  5.327780729738637  59.31609302126053  2.1439899890825247  -8.063946245218327  36.06849935873822  12.80177702396431  -2.104342227983638  25.693182722912844  0.000000
0.374  0.000000  0.000000  0.000000  -29.667780136173032  -0.7315201767712006  5.619485870370586  59.90162372751609  2.1523761589499695  -7.711615679171299  37.05929536710247  14.377860201199402  -4.490094726446843  25.657392104986187  0.000000
0.40800000000000003  0.000000  0.000000  0.000000  -29.627208104657377  -0.40944929092404847  5.828552751510792  60.21270664560315  2.2274639196776054  -7.241294175682453  38.233318154116894  16.01594888607212  -7.03602005035833  25.61701009362207  0.000000
0.44200000000000006  0.000000  0.000000  0.000000  -29.799954510123218  -0.01813081333456036  6.004170922809042  60.8820580344616  2.4309773657852265  -6.67359973177392  39.4386115410706  17.758118895161036  -9.615245984339102  25.571958057691326  0.000000
0.47600000000000003  0.000000  0.000000  0.000000  -29.73333686490775  0.4374132818442282  6.06127760286164  61.27349181912416  2.7710507544698477  -5.9650978447896055  40.76581780488904  19.617686792601184  -12.278978964636384  25.53633617225061  0.000000
0.51  0.000000  0.000000  0.000000  -29.83210544162675  0.9941787746587607  5.967688716544951  62.029740945917965  3.3666548282001534  -5.0971251457670395  42.00684770976188  21.707749539607516  -14.890852663221112  25.486372857353906  0.000000
0.544  0.000000  0.000000  0.000000  -29.62548593559404  1.627793964712963  5.7288457199819485  62.46459596919241  4.203073321549027  -4.091227683711179  43.14109426280299  24.000504761212362  -17.361835161369548  25.497358608323143  0.000000
0.5780000000000001  0.000000  0.000000  0.000000  -29.563462259769448  2.2862988229500454  5.314949165574105  63.303314277310506  5.434135737808175  -3.0218078422579886  43.905891847445545  26.69264796670154  -19.60135756489248  25.452154826584263  0.000000
0.6120000000000001  0.000000  0.000000  0.000000  -29.37955313247281  2.674398450666472  5.065667589570314  63.984736216949344  7.027218026275513  -2.1224888587633597  44.160236832225145  29.487945530040196  -21.45096163510758  25.559728785690197  0.000000
0.646  0.000000  0.000000  0.000000  -28.012266667632137  4.53643708075498  4.097514969800391  64.1355320668019  8.815424885996793  -0.24041993643246987  43.555528130654714  32.316015082179156  -22.961927733573393  25.413346019083722  0.000000
0.68  0.000000  0.000000  0.000000  -24.55360255745213  8.405681897712656  1.3930093718181666  62.19174779689552  10.258416455436336  3.3508275104512815  41.576792196212914  35.212324001646614  -23.88015195640984  25.367903439893247  0.000000
0.7140000000000001  0.000000  0.000000  0.000000  -27.068105763730024  7.4567374421491275  1.0808652494608428  64.22764869163004  12.337260298409872  3.851357457467372  39.624343856282415  38.97059660909194  -25.685320340445365  25.09128950310363  0.000000
0.748  0.000000  0.000000  0.000000  -37.16246816453047  -0.9180006562199201  8.4920968490122  73.9312678185175  13.052891137673045  -1.4249644498052971  35.75066963747866  40.433421127415365  -26.53790968161225  24.340451131395803  0.000000
0.782  0.000000  0.000000  0.000000  -33.27337145380138  -0.31804432360322493  -0.2075849384735384  67.87344939779275  20.7118346076534  -1.6102361471586748  32.860359791805536  42.85885415890241  -30.78406500085644  24.317056520208325  0.000000
0.8160000000000001  0.000000  0.000000  0.000000  -11.141611403970588  5.670735772389285  -34.38726170611277  32.934189585349735  36.71571675781576  16.36680910015355  36.2188144505686  44.779414752865556  -39.927866226118624  28.269559567616625  0.000000
0.8500000000000001  0.000000  0.000000  0.000000  3.226396718968858  12.14715314820259  -30.033866263988585  40.710176681871964  37.91984481458627  -13.109130698376914  44.57586031023461  43.69985061143124  -49.81211359142215  35.293387535712746  0.000000
0.8840000000000001  0.000000  0.000000  0.000000  -27.88376127393664  8.266660716487548  6.962366122995552  67.69474051784486  4.365706416122052  -38.60702068401777  36.12388204015605  51.9850636492614  -45.82607997969904  34.56174562970307  0.000000
0.918  0.000000  0.000000  0.000000  -71.24573528660152  -28.654918521784726  3.1637807473857626  48.45283119261315  -21.98257630323439  -3.630524331441139  34.97401515411104  62.17448448844615  -32.775282846569326  30.447232351989918  0.000000
0.9520000000000001  0.000000  0.000000  0.000000  -80.6039112807476  -15.490060379795981  -2.327039844753571  49.68543625556638  -12.217959633999467  5.35881347125408  50.00012950808098  55.32481723324429  -33.58754623271398  25.033661920693213  0.000000
0.9860000000000001  0.000000  0.000000  0.000000  -41.77268745140873  21.184072604674295  15.95379822923477  71.73590273999785  7.426416615207562  -27.77804633174556  56.7345439105708  47.65354973420287  -47.46157931643675  23.07410668921665  0.000000
1.02  0.000000  0.000000  0.000000  -2.8381112644618067  6.132637969307733  28.677574567399937  54.12339688387854  -6.456900208418121  -34.07496237296114  38.918800456714465  52.342652993356516  -49.37228665684162  23.8373287044156  0.000000
1.054  0.000000  0.000000  0.000000  -7.708703620307152  -8.072213180095261  30.6015184114147  58.17289545001458  -20.1564074993909  -18.550611553742336  31.162395822645333  59.784822859534664  -57.60963530039433  18.17599903819038  0.000000
1.088  0.000000  0.000000  0.000000  -27.269931767974988  12.011335747898226  6.0136783913102825  77.88082149558552  -4.1330941903978795  8.891969808062651  41.48551724204091  57.494973409250335  -61.841654815042645  20.16535468829968  0.000000
1.122  0.000000  0.000000  0.000000  -30.634258896493822  14.174843215137036  5.101071596615533  75.35641412964446  3.768360520718433  14.8837909386373  48.61169316715289  51.05035036526167  -58.78720186603645  23.431738382530888  0.000000
1.1560000000000001  0.000000  0.000000  0.000000  -23.963092602833765  7.627964134751848  17.099330784751665  69.49413338771095  3.7908592489114277  1.181209734291662  55.31920364823095  51.91244836428997  -58.37263985755551  22.666694975104623  0.000000
1.1900000000000002  0.000000  0.000000  0.000000  -24.908360130704086  7.8691432775777  19.67062625085299  68.5453812004957  3.7224341848581832  -2.7696615985578656  57.42865635624015  54.2504208215223  -55.7440543089404  24.019280649395963  0.000000
1.2240000000000002  0.000000  0.000000  0.000000  -29.59336249429369  8.978905857784326  16.79833205917613  68.05057477142053  1.690197676079061  1.8055058546592297  55.60600093620596  56.039938645503426  -52.972171248486674  24.022434214532133  0.000000
1.258  0.000000  0.000000  0.000000  -31.643358125637388  9.928251711406933  16.07354505039165  68.34587268326604  2.2160778113025463  1.3724062178302099  54.42349823983515  57.54826251885517  -51.907623288149786  24.181144841567612  0.000000
1.292  0.000000  0.000000  0.000000  -31.163574856366164  10.217804748766728  16.12866670162837  66.361768476505  4.601608377617214  0.7820113126723951  54.848424642586316  56.5569711865884  -51.19792588195024  24.045243585760616  0.000000
1.326  0.000000  0.000000  0.000000  -30.716054778988873  9.435753402537497  15.868951924005687  65.80975767519607  6.424095434661782  0.11852325953238683  54.58594837780087  56.45391411348846  -51.13753719456316  23.390365784239833  0.000000
